<svg id="Camada_1" data-name="Camada 1" xmlns="http://www.w3.org/2000/svg" viewBox="0 0 1920 946.43"><defs><style>.cls-1{fill:#6c6;}.cls-2{fill:#f66;}.cls-3{fill:#d8d8d8;}.cls-4{fill:#2d2d2d;}.cls-5{fill:#fdda54;}.cls-10,.cls-6,.cls-8,.cls-9{fill:none;}.cls-6{stroke:#d8d8d8;stroke-width:1.65px;}.cls-7{fill:#57ce57;}.cls-10,.cls-8,.cls-9{stroke:#000;}.cls-10,.cls-8{stroke-linecap:round;}.cls-8{stroke-miterlimit:10;}.cls-10,.cls-9{stroke-linejoin:round;stroke-width:2px;}</style></defs><title>Prancheta 1</title><path id="Caminho_60" data-name="Caminho 60" class="cls-1" d="M899.23,660.08h262.42s22.74-332.4-166.2-337.66S899.23,660.08,899.23,660.08Z"/><path id="Caminho_61" data-name="Caminho 61" class="cls-1" d="M1283.18,723.93H1020.76S998,391.52,1187,386.28,1283.18,723.93,1283.18,723.93Z"/><g id="Grupo_39" data-name="Grupo 39"><g id="Grupo_30" data-name="Grupo 30"><rect id="Retângulo_17" data-name="Retângulo 17" class="cls-2" x="1200.3" y="166.35" width="248.43" height="255.43" transform="translate(-15.49 506.69) rotate(-21.53)"/><rect id="Retângulo_18" data-name="Retângulo 18" class="cls-3" x="1156.96" y="174.6" width="248.43" height="19.24" transform="translate(21.81 483.12) rotate(-21.53)"/><rect id="Retângulo_19" data-name="Retângulo 19" class="cls-3" x="1209.84" y="216.48" width="12.11" height="248.43" transform="translate(-40.18 470.08) rotate(-21.53)"/><rect id="Retângulo_20" data-name="Retângulo 20" class="cls-3" x="1429.66" y="129.74" width="12.11" height="248.43" transform="translate(7 544.71) rotate(-21.53)"/><rect id="Retângulo_21" data-name="Retângulo 21" class="cls-3" x="1200.31" y="291.04" width="248.43" height="6.06" transform="translate(-15.49 506.7) rotate(-21.53)"/></g><g id="Grupo_31" data-name="Grupo 31"><path id="Caminho_62" data-name="Caminho 62" class="cls-3" d="M1226.51,316.37l34.13-13.47-19-48.1s-5.16-6.26-19.9-.44-14.46,13.33-14.46,13.33Z"/><path id="Caminho_63" data-name="Caminho 63" class="cls-4" d="M1227.08,313.18,1258,301l-17.21-43.63s-4.68-5.67-18-.4S1209.66,269,1209.66,269Z"/></g><g id="Grupo_32" data-name="Grupo 32"><path id="Caminho_64" data-name="Caminho 64" class="cls-3" d="M1273,298l34.13-13.47-19-48.09s-5.16-6.26-19.9-.44-14.46,13.33-14.46,13.33Z"/><path id="Caminho_65" data-name="Caminho 65" class="cls-4" d="M1273.6,294.82l31-12.22L1287.34,239s-4.68-5.68-18-.4-13.12,12.09-13.12,12.09Z"/></g><g id="Grupo_33" data-name="Grupo 33"><path id="Caminho_66" data-name="Caminho 66" class="cls-3" d="M1332,274.76l34.13-13.47-19-48.09s-5.16-6.26-19.9-.44-14.47,13.33-14.47,13.33Z"/><path id="Caminho_67" data-name="Caminho 67" class="cls-4" d="M1332.52,271.57l31-12.22-17.21-43.63s-4.68-5.67-18-.4-13.12,12.09-13.12,12.09Z"/></g><g id="Grupo_34" data-name="Grupo 34"><path id="Caminho_68" data-name="Caminho 68" class="cls-3" d="M1379.86,255.86,1414,242.39l-19-48.1s-5.16-6.25-19.9-.44-14.46,13.33-14.46,13.33Z"/><path id="Caminho_69" data-name="Caminho 69" class="cls-4" d="M1380.43,252.66l31-12.22-17.21-43.62s-4.68-5.68-18-.4S1363,208.51,1363,208.51Z"/></g><path id="Caminho_70" data-name="Caminho 70" class="cls-5" d="M1280.73,183.1,1125.8,244.23l69.76-50.1,69.75-50.1,85.18-11,85.17-11Z"/><g id="Grupo_35" data-name="Grupo 35"><path id="Caminho_71" data-name="Caminho 71" class="cls-3" d="M1279,449.33l34.13-13.46-28.68-72.7s-6.61-9.92-21.35-4.11-13.13,16.7-13.13,16.7Z"/><path id="Caminho_72" data-name="Caminho 72" class="cls-4" d="M1279,444.83l31-12.22-26-65.94s-6-9-19.36-3.73-11.91,15.15-11.91,15.15Z"/></g><g id="Grupo_36" data-name="Grupo 36"><path id="Caminho_73" data-name="Caminho 73" class="cls-3" d="M1325.49,431l34.13-13.47-28.68-72.69s-6.61-9.93-21.35-4.11-13.13,16.7-13.13,16.7Z"/><path id="Caminho_74" data-name="Caminho 74" class="cls-4" d="M1325.55,426.47l31-12.21-26-65.94s-6-9-19.36-3.73-11.92,15.15-11.92,15.15Z"/></g><g id="Grupo_37" data-name="Grupo 37"><path id="Caminho_75" data-name="Caminho 75" class="cls-3" d="M1384.42,407.73l34.13-13.47-28.68-72.69s-6.61-9.93-21.35-4.12-13.13,16.7-13.13,16.7Z"/><path id="Caminho_76" data-name="Caminho 76" class="cls-4" d="M1384.48,403.22l31-12.22-26-65.94s-6-9-19.36-3.73-11.92,15.15-11.92,15.15Z"/></g><g id="Grupo_38" data-name="Grupo 38"><path id="Caminho_77" data-name="Caminho 77" class="cls-3" d="M1432.33,388.82l34.13-13.46-28.68-72.7s-6.61-9.92-21.35-4.11-13.13,16.7-13.13,16.7Z"/><path id="Caminho_78" data-name="Caminho 78" class="cls-4" d="M1432.38,384.32l31-12.22-26-65.94s-6-9-19.36-3.73-11.91,15.15-11.91,15.15Z"/></g></g><g id="Grupo_43" data-name="Grupo 43"><g id="Grupo_40" data-name="Grupo 40"><path id="Caminho_79" data-name="Caminho 79" class="cls-3" d="M1675.17,338.18l47.61,6.05,100.1-186.61L1809,1.39,1798.05,0l1.32,150Z"/><path id="Caminho_80" data-name="Caminho 80" class="cls-3" d="M1925.83,370.07,1878.22,364,1828,158.28l52.61-147.77,10.9,1.39-38.83,144.86Z"/><rect id="Retângulo_22" data-name="Retângulo 22" class="cls-3" x="1834.2" y="7.66" width="11.56" height="72.28" transform="translate(1564.69 1863.6) rotate(-82.76)"/><rect id="Retângulo_23" data-name="Retângulo 23" class="cls-3" x="1817.26" y="144.59" width="15.61" height="23.71" transform="translate(1439.91 1947.25) rotate(-82.76)"/></g><g id="Grupo_41" data-name="Grupo 41"><line id="Linha_10" data-name="Linha 10" class="cls-6" x1="1886.45" y1="14.68" x2="2055.03" y2="386.51"/><line id="Linha_11" data-name="Linha 11" class="cls-6" x1="1886.2" y1="23.02" x2="2025.09" y2="384.74"/><line id="Linha_12" data-name="Linha 12" class="cls-6" x1="1883.77" y1="28.39" x2="1996.09" y2="379.01"/><line id="Linha_13" data-name="Linha 13" class="cls-6" x1="1882.03" y1="35.17" x2="1966.41" y2="375.23"/></g><g id="Grupo_42" data-name="Grupo 42"><line id="Linha_14" data-name="Linha 14" class="cls-6" x1="1801.54" y1="8.73" x2="1545.21" y2="326.49"/><line id="Linha_15" data-name="Linha 15" class="cls-6" x1="1799.69" y1="16.86" x2="1574.64" y2="332.27"/><line id="Linha_16" data-name="Linha 16" class="cls-6" x1="1800.7" y1="22.67" x2="1604.14" y2="333.99"/><line id="Linha_17" data-name="Linha 17" class="cls-6" x1="1800.68" y1="29.67" x2="1633.83" y2="337.76"/></g></g><g id="Grupo_52" data-name="Grupo 52"><rect id="Retângulo_24" data-name="Retângulo 24" class="cls-7" x="1473.63" y="169.17" width="170.04" height="174.83" transform="translate(-20.22 305.71) rotate(-11.13)"/><rect id="Retângulo_25" data-name="Retângulo 25" class="cls-3" x="1458.03" y="170.69" width="170.04" height="13.17" transform="translate(-5.2 301.2) rotate(-11.13)"/><rect id="Retângulo_26" data-name="Retângulo 26" class="cls-3" x="1475.62" y="189.53" width="8.29" height="170.04" transform="translate(-25.17 290.81) rotate(-11.13)"/><rect id="Retângulo_27" data-name="Retângulo 27" class="cls-3" x="1634.36" y="158.3" width="8.29" height="170.04" transform="translate(-16.15 320.87) rotate(-11.13)"/><rect id="Retângulo_28" data-name="Retângulo 28" class="cls-3" x="1473.64" y="254.54" width="170.04" height="4.15" transform="translate(-20.22 305.71) rotate(-11.13)"/><g id="Grupo_44" data-name="Grupo 44"><path id="Caminho_81" data-name="Caminho 81" class="cls-3" d="M1489.92,259.5l24.65-4.84-6.83-34.74s-2.7-4.85-13.35-2.75-11.38,7.18-11.38,7.18Z"/><path id="Caminho_82" data-name="Caminho 82" class="cls-4" d="M1490.7,257.43l22.36-4.4-6.2-31.5s-2.45-4.4-12.1-2.5-10.33,6.51-10.33,6.51Z"/></g><g id="Grupo_45" data-name="Grupo 45"><path id="Caminho_83" data-name="Caminho 83" class="cls-3" d="M1523.51,252.9l24.65-4.85-6.83-34.73s-2.7-4.86-13.35-2.76-11.39,7.19-11.39,7.19Z"/><path id="Caminho_84" data-name="Caminho 84" class="cls-4" d="M1524.29,250.82l22.36-4.4-6.2-31.5s-2.45-4.4-12.1-2.5-10.33,6.52-10.33,6.52Z"/></g><g id="Grupo_46" data-name="Grupo 46"><path id="Caminho_85" data-name="Caminho 85" class="cls-3" d="M1566.06,244.53l24.65-4.85L1583.88,205s-2.7-4.85-13.34-2.76-11.39,7.18-11.39,7.18Z"/><path id="Caminho_86" data-name="Caminho 86" class="cls-4" d="M1566.85,242.45l22.35-4.4-6.2-31.5s-2.45-4.4-12.1-2.5-10.33,6.51-10.33,6.51Z"/></g><g id="Grupo_47" data-name="Grupo 47"><path id="Caminho_87" data-name="Caminho 87" class="cls-3" d="M1600.66,237.72l24.65-4.85-6.83-34.73s-2.7-4.85-13.35-2.76-11.38,7.18-11.38,7.18Z"/><path id="Caminho_88" data-name="Caminho 88" class="cls-4" d="M1601.44,235.64l22.36-4.4-6.2-31.5s-2.45-4.4-12.1-2.5-10.33,6.52-10.33,6.52Z"/></g><path id="Caminho_89" data-name="Caminho 89" class="cls-5" d="M1542.91,176.47l-111.88,22,53.16-25.11,53.17-25.11,58.72,3.1,58.71,3.1Z"/><g id="Grupo_48" data-name="Grupo 48"><path id="Caminho_90" data-name="Caminho 90" class="cls-3" d="M1508.81,355.53l24.65-4.85-10.33-52.5s-3.22-7.5-13.86-5.41-10.91,9.62-10.91,9.62Z"/><path id="Caminho_91" data-name="Caminho 91" class="cls-4" d="M1509.4,352.5l22.36-4.4-9.37-47.62s-2.92-6.8-12.57-4.9-9.9,8.73-9.9,8.73Z"/></g><g id="Grupo_49" data-name="Grupo 49"><path id="Caminho_92" data-name="Caminho 92" class="cls-3" d="M1542.4,348.92l24.65-4.85-10.33-52.5s-3.22-7.5-13.86-5.41-10.91,9.63-10.91,9.63Z"/><path id="Caminho_93" data-name="Caminho 93" class="cls-4" d="M1543,345.89l22.35-4.4L1556,293.87s-2.92-6.8-12.58-4.9-9.89,8.73-9.89,8.73Z"/></g><g id="Grupo_50" data-name="Grupo 50"><path id="Caminho_94" data-name="Caminho 94" class="cls-3" d="M1585,340.55l24.65-4.85-10.32-52.5s-3.23-7.5-13.87-5.41-10.91,9.62-10.91,9.62Z"/><path id="Caminho_95" data-name="Caminho 95" class="cls-4" d="M1585.55,337.52l22.36-4.4-9.37-47.62s-2.92-6.8-12.58-4.9-9.89,8.73-9.89,8.73Z"/></g><g id="Grupo_51" data-name="Grupo 51"><path id="Caminho_96" data-name="Caminho 96" class="cls-3" d="M1619.55,333.74l24.65-4.85-10.33-52.5s-3.22-7.5-13.86-5.4-10.91,9.62-10.91,9.62Z"/><path id="Caminho_97" data-name="Caminho 97" class="cls-4" d="M1620.14,330.71l22.36-4.4-9.37-47.61s-2.92-6.8-12.57-4.91-9.9,8.73-9.9,8.73Z"/></g></g><path id="Caminho_99" data-name="Caminho 99" class="cls-3" d="M754.52,817.5l-20.64-91.89s-6.58,1.48-6.73-5.94l-11.3-46.06a18.08,18.08,0,0,1-5.53-8.7S686.77,556.6,684.9,545.62c0,0-14.87.64-28.49-4.42,0,0-29.52,1-40.72-1.13,0,0-12.56-4.92-21.4-28.78l-5.84-2.14s-21.75,3.91-42.32-6.87l-1.82-2.68-2-.53.69-3.22,2.6-.8,1.66-1.67,12.78.7s-5.47-3.63-1.15-4.27c0,0,16.72-1.2,26.16,6.07l5.83,1,.52-1.55,17.51,4.1s24.55-4.07,29.22-2.5l23.16-8,.09-1.88s28.72-12.29,30.33-11.4l-8.23-42.07s1.78-17.65,17.92-10.36c0,0,6.32,4.76,10.3,18.79l10.09,29,47.77.12,9.59,4.22s37.34-5.23,41.68-6.1l.32,1.05,3.71-1S825,461.8,842,460.5c0,0,3.3.37.94,3.06l.91,1.34,9.9-1.31,1.48,1.28s3.09-.84,2.63.92l-1,1.93L855.35,469l-.29,2.05-.54,1s-13.49,6.8-21.17,7.42L831.3,479l-8.13,2.73s-.76,29.7-8,31.7-27.68,3.42-27.68,3.42-7.2,12.84-16.88,14.31l16.77,48.58s2.29,6.92.66,7.88l-2,1.55,1.07,7.3-1.46,2.88S798,632.56,797.6,639l-1.13.69,54.78,148.07Z"/><path id="Caminho_100" data-name="Caminho 100" class="cls-5" d="M-136.23,755l49.61,9C-58,769.1-29.28,773.08-.44,776.62c28.15,3.46,56.37,6.26,84.67,8.17,52.24,3.52,104.55,5.43,156.94,4.2,31-.73,62-1.8,92.9-4q43-3.11,85.78-8.24,65-7.89,129.26-20.34a1728.77,1728.77,0,0,0,181.18-45.6c110.67-34.32,216.5-79.27,318-133.8,55.2-29.65,107.77-63.27,160.86-96.17,75.08-46.53,152.72-88.75,233.52-125.44,87.44-39.7,177.49-72.48,271.61-94.38a1085,1085,0,0,1,121.13-21.2,911,911,0,0,1,125-6c14.46.32,28.91,1.29,43.36,2q0,407.4.14,814.8c0,4.63-1.33,5.07-5.57,5.07q-1064.53-.15-2129.08,0c-4.85,0-5.64-1.14-5.63-5.55Q-136.12,902.54-136.23,755Z"/><g id="Componente_1_1" data-name="Componente 1 1"><g id="Grupo_29" data-name="Grupo 29"><line id="Linha_9" data-name="Linha 9" class="cls-8" x1="957.96" y1="842.46" x2="957.96" y2="863.2"/><path id="Retângulo_15" data-name="Retângulo 15" class="cls-9" d="M958,842.46h0a11,11,0,0,1,11,11v13.87a11,11,0,0,1-11,11h0a11,11,0,0,1-11-11V853.46A11,11,0,0,1,958,842.46Z"/><path id="Retângulo_16" data-name="Retângulo 16" d="M958,845.81h0a2.1,2.1,0,0,1,2.1,2.11v5.75a2.1,2.1,0,0,1-2.1,2.11h0a2.1,2.1,0,0,1-2.11-2.11v-5.75A2.1,2.1,0,0,1,958,845.81Z"/></g><path id="Caminho_58" data-name="Caminho 58" class="cls-10" d="M948.6,881.28l9.23,9.54,9.48-9.81"/></g></svg>