<svg id="Camada_1" data-name="Camada 1" xmlns="http://www.w3.org/2000/svg" viewBox="0 0 1920 926.52"><defs><style>.cls-1{fill:#64a55f;}.cls-2{fill:#ca6065;}.cls-3{fill:#d8d8d8;}.cls-4{fill:#2c2c2c;}.cls-5{fill:#f1d25a;}.cls-11,.cls-6,.cls-8,.cls-9{fill:none;}.cls-6{stroke:#d8d8d8;stroke-width:1.65px;}.cls-7{fill:#59a150;}.cls-11,.cls-8,.cls-9{stroke:#040006;}.cls-11,.cls-8{stroke-linecap:round;}.cls-8{stroke-miterlimit:10;}.cls-11,.cls-9{stroke-linejoin:round;stroke-width:2px;}.cls-10{fill:#040006;}</style></defs><title>Prancheta 1</title><path id="Caminho_60" data-name="Caminho 60" class="cls-1" d="M899.89,670.1h262.42s22.74-332.4-166.2-337.66S899.89,670.1,899.89,670.1Z"/><path id="Caminho_61" data-name="Caminho 61" class="cls-1" d="M1283.84,734H1021.42s-22.75-332.41,166.2-337.65S1283.84,734,1283.84,734Z"/><g id="Grupo_39" data-name="Grupo 39"><g id="Grupo_30" data-name="Grupo 30"><rect id="Retângulo_17" data-name="Retângulo 17" class="cls-2" x="1200.96" y="176.37" width="248.43" height="255.43" transform="translate(-19.12 507.64) rotate(-21.53)"/><rect id="Retângulo_18" data-name="Retângulo 18" class="cls-3" x="1157.62" y="184.62" width="248.43" height="19.24" transform="translate(18.18 484.06) rotate(-21.53)"/><rect id="Retângulo_19" data-name="Retângulo 19" class="cls-3" x="1210.5" y="226.5" width="12.11" height="248.43" transform="translate(-43.81 471.02) rotate(-21.53)"/><rect id="Retângulo_20" data-name="Retângulo 20" class="cls-3" x="1430.32" y="139.76" width="12.11" height="248.43" transform="translate(3.37 545.65) rotate(-21.53)"/><rect id="Retângulo_21" data-name="Retângulo 21" class="cls-3" x="1200.97" y="301.06" width="248.43" height="6.06" transform="translate(-19.12 507.64) rotate(-21.53)"/></g><g id="Grupo_31" data-name="Grupo 31"><path id="Caminho_62" data-name="Caminho 62" class="cls-3" d="M1227.17,326.39l34.13-13.47-19-48.1s-5.16-6.26-19.9-.44S1208,277.71,1208,277.71Z"/><path id="Caminho_63" data-name="Caminho 63" class="cls-4" d="M1227.74,323.19l31-12.21-17.21-43.63s-4.68-5.68-18-.4S1210.32,279,1210.32,279Z"/></g><g id="Grupo_32" data-name="Grupo 32"><path id="Caminho_64" data-name="Caminho 64" class="cls-3" d="M1273.68,308l34.13-13.47-19-48.09s-5.16-6.26-19.9-.44-14.46,13.33-14.46,13.33Z"/><path id="Caminho_65" data-name="Caminho 65" class="cls-4" d="M1274.26,304.84l31-12.22L1288,249s-4.68-5.67-18-.4-13.12,12.09-13.12,12.09Z"/></g><g id="Grupo_33" data-name="Grupo 33"><path id="Caminho_66" data-name="Caminho 66" class="cls-3" d="M1332.61,284.78l34.13-13.47-19-48.09s-5.16-6.26-19.9-.44-14.47,13.32-14.47,13.32Z"/><path id="Caminho_67" data-name="Caminho 67" class="cls-4" d="M1333.18,281.59l31-12.22-17.21-43.63s-4.68-5.67-18-.4-13.12,12.09-13.12,12.09Z"/></g><g id="Grupo_34" data-name="Grupo 34"><path id="Caminho_68" data-name="Caminho 68" class="cls-3" d="M1380.52,265.87l34.13-13.46-19-48.1s-5.16-6.26-19.9-.44-14.46,13.33-14.46,13.33Z"/><path id="Caminho_69" data-name="Caminho 69" class="cls-4" d="M1381.09,262.68l31-12.22-17.21-43.62s-4.68-5.68-18-.4-13.12,12.09-13.12,12.09Z"/></g><path id="Caminho_70" data-name="Caminho 70" class="cls-5" d="M1281.39,193.11l-154.93,61.14,69.76-50.1,69.75-50.1,85.18-11,85.17-11Z"/><g id="Grupo_35" data-name="Grupo 35"><path id="Caminho_71" data-name="Caminho 71" class="cls-3" d="M1279.64,459.35l34.13-13.47-28.68-72.69s-6.61-9.93-21.35-4.11-13.13,16.7-13.13,16.7Z"/><path id="Caminho_72" data-name="Caminho 72" class="cls-4" d="M1279.69,454.85l31-12.22-26-65.94s-6-9-19.36-3.73-11.91,15.15-11.91,15.15Z"/></g><g id="Grupo_36" data-name="Grupo 36"><path id="Caminho_73" data-name="Caminho 73" class="cls-3" d="M1326.15,441l34.13-13.47-28.68-72.69s-6.61-9.93-21.35-4.11-13.13,16.7-13.13,16.7Z"/><path id="Caminho_74" data-name="Caminho 74" class="cls-4" d="M1326.21,436.49l31-12.22-26-65.94s-6-9-19.36-3.72-11.92,15.14-11.92,15.14Z"/></g><g id="Grupo_37" data-name="Grupo 37"><path id="Caminho_75" data-name="Caminho 75" class="cls-3" d="M1385.08,417.75l34.13-13.47-28.68-72.7s-6.61-9.92-21.35-4.11-13.13,16.7-13.13,16.7Z"/><path id="Caminho_76" data-name="Caminho 76" class="cls-4" d="M1385.14,413.24l31-12.22-26-65.94s-6-9-19.36-3.73-11.92,15.15-11.92,15.15Z"/></g><g id="Grupo_38" data-name="Grupo 38"><path id="Caminho_77" data-name="Caminho 77" class="cls-3" d="M1433,398.84l34.13-13.47-28.68-72.69s-6.61-9.93-21.35-4.11-13.13,16.7-13.13,16.7Z"/><path id="Caminho_78" data-name="Caminho 78" class="cls-4" d="M1433,394.34l31-12.22-26-65.94s-6-9-19.36-3.73-11.91,15.15-11.91,15.15Z"/></g></g><g id="Grupo_43" data-name="Grupo 43"><g id="Grupo_40" data-name="Grupo 40"><path id="Caminho_79" data-name="Caminho 79" class="cls-3" d="M1675.83,348.19l47.61,6.06,100.1-186.61L1809.61,11.41,1798.71,10,1800,160Z"/><path id="Caminho_80" data-name="Caminho 80" class="cls-3" d="M1926.49,380.09,1878.88,374,1828.7,168.3l52.61-147.77,10.9,1.39-38.83,144.86Z"/><rect id="Retângulo_22" data-name="Retângulo 22" class="cls-3" x="1834.86" y="17.68" width="11.56" height="72.28" transform="matrix(0.13, -0.99, 0.99, 0.13, 1555.33, 1873.01)"/><rect id="Retângulo_23" data-name="Retângulo 23" class="cls-3" x="1817.92" y="154.61" width="15.61" height="23.71" transform="matrix(0.13, -0.99, 0.99, 0.13, 1430.54, 1956.66)"/></g><g id="Grupo_41" data-name="Grupo 41"><line id="Linha_10" data-name="Linha 10" class="cls-6" x1="1887.11" y1="24.7" x2="2055.69" y2="396.53"/><line id="Linha_11" data-name="Linha 11" class="cls-6" x1="1886.86" y1="33.04" x2="2025.75" y2="394.76"/><line id="Linha_12" data-name="Linha 12" class="cls-6" x1="1884.43" y1="38.41" x2="1996.75" y2="389.03"/><line id="Linha_13" data-name="Linha 13" class="cls-6" x1="1882.69" y1="45.19" x2="1967.07" y2="385.25"/></g><g id="Grupo_42" data-name="Grupo 42"><line id="Linha_14" data-name="Linha 14" class="cls-6" x1="1802.2" y1="18.74" x2="1545.87" y2="336.51"/><line id="Linha_15" data-name="Linha 15" class="cls-6" x1="1800.35" y1="26.88" x2="1575.3" y2="342.29"/><line id="Linha_16" data-name="Linha 16" class="cls-6" x1="1801.36" y1="32.69" x2="1604.8" y2="344.01"/><line id="Linha_17" data-name="Linha 17" class="cls-6" x1="1801.34" y1="39.68" x2="1634.49" y2="347.78"/></g></g><g id="Grupo_52" data-name="Grupo 52"><rect id="Retângulo_24" data-name="Retângulo 24" class="cls-7" x="1474.29" y="179.19" width="170.04" height="174.83" transform="translate(-22.14 306.02) rotate(-11.13)"/><rect id="Retângulo_25" data-name="Retângulo 25" class="cls-3" x="1458.69" y="180.71" width="170.04" height="13.17" transform="translate(-7.12 301.52) rotate(-11.13)"/><rect id="Retângulo_26" data-name="Retângulo 26" class="cls-3" x="1476.28" y="199.55" width="8.29" height="170.04" transform="translate(-27.09 291.13) rotate(-11.13)"/><rect id="Retângulo_27" data-name="Retângulo 27" class="cls-3" x="1635.02" y="168.32" width="8.29" height="170.04" transform="translate(-18.07 321.19) rotate(-11.13)"/><rect id="Retângulo_28" data-name="Retângulo 28" class="cls-3" x="1474.3" y="264.55" width="170.04" height="4.15" transform="translate(-22.14 306.02) rotate(-11.13)"/><g id="Grupo_44" data-name="Grupo 44"><path id="Caminho_81" data-name="Caminho 81" class="cls-3" d="M1490.58,269.52l24.65-4.85-6.83-34.73s-2.7-4.85-13.35-2.76-11.38,7.19-11.38,7.19Z"/><path id="Caminho_82" data-name="Caminho 82" class="cls-4" d="M1491.36,267.45l22.36-4.4-6.2-31.5s-2.45-4.4-12.1-2.5-10.33,6.51-10.33,6.51Z"/></g><g id="Grupo_45" data-name="Grupo 45"><path id="Caminho_83" data-name="Caminho 83" class="cls-3" d="M1524.17,262.91l24.65-4.84L1542,223.33s-2.7-4.85-13.35-2.75-11.39,7.18-11.39,7.18Z"/><path id="Caminho_84" data-name="Caminho 84" class="cls-4" d="M1525,260.84l22.36-4.4-6.2-31.5s-2.45-4.4-12.1-2.5-10.33,6.51-10.33,6.51Z"/></g><g id="Grupo_46" data-name="Grupo 46"><path id="Caminho_85" data-name="Caminho 85" class="cls-3" d="M1566.72,254.54l24.65-4.84L1584.54,215s-2.7-4.85-13.34-2.75-11.39,7.18-11.39,7.18Z"/><path id="Caminho_86" data-name="Caminho 86" class="cls-4" d="M1567.51,252.47l22.35-4.4-6.2-31.5s-2.45-4.4-12.1-2.5-10.33,6.51-10.33,6.51Z"/></g><g id="Grupo_47" data-name="Grupo 47"><path id="Caminho_87" data-name="Caminho 87" class="cls-3" d="M1601.32,247.74l24.65-4.85-6.83-34.73s-2.7-4.85-13.35-2.76-11.38,7.18-11.38,7.18Z"/><path id="Caminho_88" data-name="Caminho 88" class="cls-4" d="M1602.1,245.66l22.36-4.4-6.2-31.5s-2.45-4.4-12.1-2.5-10.33,6.52-10.33,6.52Z"/></g><path id="Caminho_89" data-name="Caminho 89" class="cls-5" d="M1543.57,186.49l-111.88,22,53.16-25.11L1538,158.27l58.72,3.1,58.71,3.1Z"/><g id="Grupo_48" data-name="Grupo 48"><path id="Caminho_90" data-name="Caminho 90" class="cls-3" d="M1509.47,365.55l24.65-4.85-10.33-52.5s-3.22-7.5-13.86-5.41-10.91,9.62-10.91,9.62Z"/><path id="Caminho_91" data-name="Caminho 91" class="cls-4" d="M1510.06,362.52l22.36-4.4-9.37-47.62s-2.92-6.8-12.57-4.9-9.9,8.73-9.9,8.73Z"/></g><g id="Grupo_49" data-name="Grupo 49"><path id="Caminho_92" data-name="Caminho 92" class="cls-3" d="M1543.06,358.94l24.65-4.85-10.33-52.5s-3.22-7.5-13.86-5.41-10.91,9.62-10.91,9.62Z"/><path id="Caminho_93" data-name="Caminho 93" class="cls-4" d="M1543.66,355.91l22.35-4.4-9.36-47.62s-2.92-6.8-12.58-4.9-9.89,8.72-9.89,8.72Z"/></g><g id="Grupo_50" data-name="Grupo 50"><path id="Caminho_94" data-name="Caminho 94" class="cls-3" d="M1585.61,350.57l24.65-4.85-10.32-52.5s-3.23-7.5-13.87-5.41-10.91,9.62-10.91,9.62Z"/><path id="Caminho_95" data-name="Caminho 95" class="cls-4" d="M1586.21,347.54l22.36-4.4-9.37-47.62s-2.92-6.8-12.58-4.9-9.89,8.73-9.89,8.73Z"/></g><g id="Grupo_51" data-name="Grupo 51"><path id="Caminho_96" data-name="Caminho 96" class="cls-3" d="M1620.21,343.76l24.65-4.85-10.33-52.5s-3.22-7.5-13.86-5.4-10.91,9.62-10.91,9.62Z"/><path id="Caminho_97" data-name="Caminho 97" class="cls-4" d="M1620.8,340.73l22.36-4.4-9.37-47.62s-2.92-6.8-12.57-4.9-9.9,8.73-9.9,8.73Z"/></g></g><path id="Caminho_99" data-name="Caminho 99" class="cls-3" d="M755.18,827.51l-20.64-91.88s-6.58,1.48-6.73-5.94l-11.3-46.06a18.08,18.08,0,0,1-5.53-8.7s-23.55-108.31-25.42-119.3c0,0-14.87.65-28.49-4.41,0,0-29.52,1-40.72-1.13,0,0-12.56-4.92-21.4-28.78l-5.84-2.14s-21.75,3.91-42.32-6.87L545,509.62l-2-.53.69-3.22,2.6-.8,1.66-1.67,12.78.7s-5.47-3.63-1.15-4.27c0,0,16.72-1.2,26.16,6.07l5.83,1,.52-1.55,17.51,4.1s24.55-4.07,29.22-2.5l23.16-8L662,497s28.72-12.29,30.33-11.4l-8.23-42.07s1.78-17.65,17.92-10.36c0,0,6.32,4.76,10.3,18.79l10.09,29,47.77.12,9.59,4.21s37.34-5.23,41.68-6.1l.32,1.06,3.71-1s.14-7.44,17.17-8.74c0,0,3.3.37.94,3.06l.91,1.34,9.9-1.31,1.48,1.28s3.09-.84,2.63.92l-1,1.93L856,479l-.29,2.05-.54,1s-13.49,6.8-21.17,7.43l-2-.41-8.13,2.73s-.76,29.7-8,31.7-27.68,3.42-27.68,3.42-7.2,12.84-16.88,14.31L788,589.8s2.29,6.92.66,7.88l-2,1.55,1.07,7.3-1.46,2.88s12.37,33.17,12,39.64l-1.13.69L851.91,797.8Z"/><path id="Caminho_100" data-name="Caminho 100" class="cls-5" d="M-135.57,765.05-86,774c28.59,5.11,57.34,9.09,86.18,12.63,28.15,3.46,56.37,6.26,84.67,8.17,52.24,3.52,104.55,5.43,156.94,4.2,31-.73,62-1.8,92.9-4q43-3.11,85.78-8.24,65-7.89,129.26-20.35A1726.29,1726.29,0,0,0,731,720.79c110.67-34.31,216.5-79.26,318-133.8,55.2-29.64,107.77-63.27,160.86-96.16,75.08-46.53,152.72-88.75,233.52-125.44,87.44-39.7,177.49-72.48,271.61-94.38a1082.74,1082.74,0,0,1,121.13-21.2,911,911,0,0,1,125-6.05c14.46.32,28.91,1.29,43.36,2q0,407.4.14,814.8c0,4.63-1.33,5.07-5.57,5.07q-1064.54-.16-2129.08,0c-4.85,0-5.64-1.14-5.63-5.55Q-135.46,912.56-135.57,765.05Z"/><g id="Componente_1_1" data-name="Componente 1 1"><g id="Grupo_29" data-name="Grupo 29"><line id="Linha_9" data-name="Linha 9" class="cls-8" x1="958.62" y1="852.48" x2="958.62" y2="873.22"/><path id="Retângulo_15" data-name="Retângulo 15" class="cls-9" d="M958.62,852.48h0a11,11,0,0,1,11,11v13.87a11,11,0,0,1-11,11h0a11,11,0,0,1-11-11V863.48A11,11,0,0,1,958.62,852.48Z"/><path id="Retângulo_16" data-name="Retângulo 16" class="cls-10" d="M958.62,855.83h0a2.1,2.1,0,0,1,2.1,2.11v5.75a2.11,2.11,0,0,1-2.1,2.11h0a2.11,2.11,0,0,1-2.11-2.11v-5.75A2.1,2.1,0,0,1,958.62,855.83Z"/></g><path id="Caminho_58" data-name="Caminho 58" class="cls-11" d="M949.26,891.3l9.23,9.54L968,891"/></g></svg>