<svg xmlns="http://www.w3.org/2000/svg" width="315.63" height="396.102" viewBox="0 0 315.63 396.102">
  <path id="Caminho_99" data-name="Caminho 99" d="M826.949,903.587,806.316,811.7s-6.58,1.482-6.738-5.941l-11.3-46.059a18.037,18.037,0,0,1-5.521-8.7S759.2,642.689,757.336,631.707c0,0-14.878.642-28.493-4.419,0,0-29.517.978-40.716-1.128,0,0-12.567-4.921-21.4-28.781l-5.847-2.133s-21.749,3.908-42.314-6.876l-1.826-2.674-2.009-.538.688-3.215,2.6-.8,1.665-1.667,12.777.7s-5.471-3.635-1.144-4.271c0,0,16.715-1.206,26.151,6.063l5.83.983.528-1.549,17.507,4.1s24.545-4.073,29.215-2.5l23.16-8.039.093-1.877s28.722-12.29,30.336-11.4L755.9,519.609s1.782-17.648,17.924-10.359c0,0,6.321,4.761,10.3,18.792l10.087,29.023,47.776.114,9.588,4.218s37.339-5.231,41.677-6.1l.325,1.056,3.706-1.023s.144-7.439,17.165-8.74c0,0,3.3.374.941,3.063l.913,1.337,9.9-1.308,1.482,1.278s3.093-.835,2.629.925l-1,1.925-1.533,1.28-.291,2.053-.538.974s-13.489,6.8-21.17,7.427l-2.052-.409L895.6,567.86s-.761,29.7-8.02,31.7-27.677,3.418-27.677,3.418-7.2,12.84-16.878,14.312l16.765,48.578s2.294,6.921.663,7.884l-2.036,1.55,1.069,7.3-1.462,2.876s12.368,33.174,12.009,39.64l-1.128.693,54.781,148.066Z" transform="translate(-614.725 -507.485)" fill="#d8d8d8"/>
</svg>
