<svg xmlns="http://www.w3.org/2000/svg" width="2140.282" height="822.064" viewBox="0 0 2140.282 822.064">
  <path id="Caminho_100" data-name="Caminho 100" d="M1.012,836.475q24.808,4.486,49.616,8.964c28.583,5.107,57.34,9.084,86.177,12.628,28.15,3.459,56.372,6.261,84.664,8.168,52.245,3.522,104.554,5.432,156.949,4.2,31-.73,61.987-1.8,92.9-4.031q42.976-3.1,85.772-8.238,65.032-7.895,129.266-20.344a1727.7,1727.7,0,0,0,181.181-45.6c110.663-34.313,216.5-79.266,318.023-133.8,55.2-29.648,107.777-63.271,160.861-96.167,75.086-46.531,152.721-88.745,233.523-125.436,87.437-39.7,177.493-72.481,271.607-94.386a1085.14,1085.14,0,0,1,121.134-21.2,910.056,910.056,0,0,1,124.99-6.044c14.461.318,28.906,1.288,43.359,1.96q0,407.4.14,814.8c0,4.628-1.332,5.066-5.568,5.066q-1064.541-.156-2129.08.03c-4.857,0-5.641-1.142-5.634-5.545Q1.123,983.986,1.012,836.475Z" transform="translate(-0.896 -314.979)" fill="#fdda54"/>
</svg>
