<svg id="Grupo_39" data-name="Grupo 39" xmlns="http://www.w3.org/2000/svg" width="361.143" height="336.499" viewBox="0 0 361.143 336.499">
  <g id="Grupo_30" data-name="Grupo 30" transform="translate(36.298 7.714)">
    <rect id="Retângulo_17" data-name="Retângulo 17" width="248.428" height="255.426" transform="translate(0 91.188) rotate(-21.534)" fill="#f66"/>
    <rect id="Retângulo_18" data-name="Retângulo 18" width="248.428" height="19.244" transform="translate(0 91.188) rotate(-21.534)" fill="#d8d8d8"/>
    <rect id="Retângulo_19" data-name="Retângulo 19" width="12.113" height="248.428" transform="translate(2.569 97.697) rotate(-21.534)" fill="#d8d8d8"/>
    <rect id="Retângulo_20" data-name="Retângulo 20" width="12.113" height="248.428" transform="translate(222.389 10.956) rotate(-21.534)" fill="#d8d8d8"/>
    <rect id="Retângulo_21" data-name="Retângulo 21" width="248.428" height="6.056" transform="translate(45.767 207.169) rotate(-21.534)" fill="#d8d8d8"/>
  </g>
  <g id="Grupo_31" data-name="Grupo 31" transform="translate(81.503 129.928)">
    <path id="Caminho_62" data-name="Caminho 62" d="M1235.433,418.646l34.132-13.468-18.978-48.1s-5.159-6.257-19.9-.441-14.463,13.328-14.463,13.328Z" transform="translate(-1216.226 -354.166)" fill="#d8d8d8"/>
    <path id="Caminho_63" data-name="Caminho 63" d="M1235.781,415.186l30.96-12.218-17.215-43.625s-4.679-5.676-18.047-.4-13.12,12.09-13.12,12.09Z" transform="translate(-1216 -353.899)" fill="#2d2d2d"/>
  </g>
  <g id="Grupo_32" data-name="Grupo 32" transform="translate(128.016 111.573)">
    <path id="Caminho_64" data-name="Caminho 64" d="M1277.5,402.044l34.131-13.468-18.977-48.094s-5.158-6.258-19.9-.441-14.464,13.328-14.464,13.328Z" transform="translate(-1258.297 -337.565)" fill="#d8d8d8"/>
    <path id="Caminho_65" data-name="Caminho 65" d="M1277.852,398.584l30.961-12.217L1291.6,342.741s-4.679-5.675-18.049-.4-13.12,12.09-13.12,12.09Z" transform="translate(-1258.072 -337.298)" fill="#2d2d2d"/>
  </g>
  <g id="Grupo_33" data-name="Grupo 33" transform="translate(186.942 88.321)">
    <path id="Caminho_66" data-name="Caminho 66" d="M1330.8,381.012l34.132-13.468-18.979-48.094s-5.159-6.258-19.9-.441-14.464,13.328-14.464,13.328Z" transform="translate(-1311.596 -316.533)" fill="#d8d8d8"/>
    <path id="Caminho_67" data-name="Caminho 67" d="M1331.152,377.552l30.96-12.217L1344.9,321.709s-4.679-5.675-18.049-.4-13.12,12.09-13.12,12.09Z" transform="translate(-1311.37 -316.266)" fill="#2d2d2d"/>
  </g>
  <g id="Grupo_34" data-name="Grupo 34" transform="translate(234.851 69.416)">
    <path id="Caminho_68" data-name="Caminho 68" d="M1374.136,363.913l34.132-13.468-18.978-48.094s-5.159-6.258-19.9-.441-14.463,13.328-14.463,13.328Z" transform="translate(-1354.929 -299.434)" fill="#d8d8d8"/>
    <path id="Caminho_69" data-name="Caminho 69" d="M1374.484,360.453l30.96-12.217-17.215-43.626s-4.679-5.675-18.047-.4-13.12,12.09-13.12,12.09Z" transform="translate(-1354.703 -299.167)" fill="#2d2d2d"/>
  </g>
  <path id="Caminho_70" data-name="Caminho 70" d="M1297.438,297.783l-154.931,61.136,69.757-50.1,69.757-50.1,85.174-11.033,85.174-11.033Z" transform="translate(-1142.506 -236.647)" fill="#fdda54"/>
  <g id="Grupo_35" data-name="Grupo 35" transform="translate(124.096 235.274)">
    <path id="Caminho_71" data-name="Caminho 71" d="M1283.834,541.552l34.132-13.468-28.684-72.693s-6.607-9.927-21.346-4.111-13.133,16.7-13.133,16.7Z" transform="translate(-1254.751 -449.452)" fill="#d8d8d8"/>
    <path id="Caminho_72" data-name="Caminho 72" d="M1283.625,536.658l30.961-12.217-26.02-65.939s-5.993-9.005-19.362-3.729-11.913,15.149-11.913,15.149Z" transform="translate(-1254.488 -449.065)" fill="#2d2d2d"/>
  </g>
  <g id="Grupo_36" data-name="Grupo 36" transform="translate(170.609 216.92)">
    <path id="Caminho_73" data-name="Caminho 73" d="M1325.907,524.951l34.132-13.468-28.685-72.693s-6.607-9.927-21.346-4.112-13.133,16.7-13.133,16.7Z" transform="translate(-1296.823 -432.851)" fill="#d8d8d8"/>
    <path id="Caminho_74" data-name="Caminho 74" d="M1325.7,520.057l30.96-12.218-26.02-65.939s-5.992-9-19.362-3.729-11.913,15.149-11.913,15.149Z" transform="translate(-1296.559 -432.464)" fill="#2d2d2d"/>
  </g>
  <g id="Grupo_37" data-name="Grupo 37" transform="translate(229.537 193.667)">
    <path id="Caminho_75" data-name="Caminho 75" d="M1379.205,503.919l34.132-13.468-28.686-72.693s-6.606-9.927-21.344-4.112-13.133,16.7-13.133,16.7Z" transform="translate(-1350.122 -411.819)" fill="#d8d8d8"/>
    <path id="Caminho_76" data-name="Caminho 76" d="M1379,499.025l30.961-12.218-26.02-65.939s-5.993-9-19.362-3.729-11.914,15.149-11.914,15.149Z" transform="translate(-1349.859 -411.432)" fill="#2d2d2d"/>
  </g>
  <g id="Grupo_38" data-name="Grupo 38" transform="translate(277.444 174.763)">
    <path id="Caminho_77" data-name="Caminho 77" d="M1422.538,486.82l34.132-13.468-28.684-72.693s-6.607-9.927-21.346-4.112-13.133,16.7-13.133,16.7Z" transform="translate(-1393.454 -394.72)" fill="#d8d8d8"/>
    <path id="Caminho_78" data-name="Caminho 78" d="M1422.328,481.927l30.961-12.218-26.02-65.939s-5.993-9-19.362-3.729-11.913,15.149-11.913,15.149Z" transform="translate(-1393.191 -394.333)" fill="#2d2d2d"/>
  </g>
</svg>
