<svg xmlns="http://www.w3.org/2000/svg" width="511.22" height="386.851" viewBox="0 0 511.22 386.851">
  <g id="Grupo_43" data-name="Grupo 43" transform="translate(0.643)">
    <g id="Grupo_40" data-name="Grupo 40" transform="translate(129.959)">
      <path id="Caminho_79" data-name="Caminho 79" d="M1635.791,405.717l47.609,6.058,100.1-186.609L1769.575,68.929l-10.9-1.387,1.318,149.969Z" transform="translate(-1635.791 -67.542)" fill="#d8d8d8"/>
      <path id="Caminho_80" data-name="Caminho 80" d="M1871.853,436.608l-47.609-6.058-50.18-205.732,52.61-147.77,10.9,1.387L1798.74,223.3Z" transform="translate(-1621.191 -66.538)" fill="#d8d8d8"/>
      <rect id="Ret창ngulo_22" data-name="Ret창ngulo 22" width="11.564" height="72.278" transform="matrix(0.126, -0.992, 0.992, 0.126, 128.237, 44.98)" fill="#d8d8d8"/>
      <rect id="Ret창ngulo_23" data-name="Ret창ngulo 23" width="15.612" height="23.707" transform="matrix(0.126, -0.992, 0.992, 0.126, 137.157, 162.692)" fill="#d8d8d8"/>
    </g>
    <g id="Grupo_41" data-name="Grupo 41" transform="translate(336.823 14.679)">
      <line id="Linha_10" data-name="Linha 10" x2="168.586" y2="371.831" transform="translate(4.415)" fill="none" stroke="#d8d8d8" stroke-width="1.653"/>
      <line id="Linha_11" data-name="Linha 11" x2="138.894" y2="361.721" transform="translate(4.169 8.34)" fill="none" stroke="#d8d8d8" stroke-width="1.653"/>
      <line id="Linha_12" data-name="Linha 12" x2="112.328" y2="350.617" transform="translate(1.736 13.714)" fill="none" stroke="#d8d8d8" stroke-width="1.653"/>
      <line id="Linha_13" data-name="Linha 13" x2="84.38" y2="340.067" transform="translate(0 20.488)" fill="none" stroke="#d8d8d8" stroke-width="1.653"/>
    </g>
    <g id="Grupo_42" data-name="Grupo 42" transform="translate(0 8.726)">
      <line id="Linha_14" data-name="Linha 14" x1="256.333" y2="317.763" fill="none" stroke="#d8d8d8" stroke-width="1.653"/>
      <line id="Linha_15" data-name="Linha 15" x1="225.054" y2="315.411" transform="translate(29.428 8.136)" fill="none" stroke="#d8d8d8" stroke-width="1.653"/>
      <line id="Linha_16" data-name="Linha 16" x1="196.554" y2="311.314" transform="translate(58.937 13.948)" fill="none" stroke="#d8d8d8" stroke-width="1.653"/>
      <line id="Linha_17" data-name="Linha 17" x1="166.855" y2="308.099" transform="translate(88.621 20.94)" fill="none" stroke="#d8d8d8" stroke-width="1.653"/>
    </g>
  </g>
</svg>
