<svg id="Grupo_52" data-name="Grupo 52" xmlns="http://www.w3.org/2000/svg" width="227.964" height="210.556" viewBox="0 0 227.964 210.556">
  <rect id="Retângulo_24" data-name="Retângulo 24" width="170.078" height="174.869" transform="matrix(0.981, -0.193, 0.193, 0.981, 27.332, 38.975)" fill="#57ce57"/>
  <rect id="Retângulo_25" data-name="Retângulo 25" width="170.078" height="13.175" transform="matrix(0.981, -0.193, 0.193, 0.981, 27.332, 38.975)" fill="#d8d8d8"/>
  <rect id="Retângulo_26" data-name="Retângulo 26" width="8.293" height="170.078" transform="matrix(0.981, -0.193, 0.193, 0.981, 28.256, 43.676)" fill="#d8d8d8"/>
  <rect id="Retângulo_27" data-name="Retângulo 27" width="8.293" height="170.078" transform="matrix(0.981, -0.193, 0.193, 0.981, 187, 12.449)" fill="#d8d8d8"/>
  <rect id="Retângulo_28" data-name="Retângulo 28" width="170.078" height="4.146" transform="matrix(0.981, -0.193, 0.193, 0.981, 43.808, 122.732)" fill="#d8d8d8"/>
  <g id="Grupo_44" data-name="Grupo 44" transform="translate(51.979 68.387)">
    <path id="Caminho_81" data-name="Caminho 81" d="M1458.948,347.059l24.648-4.849-6.833-34.731s-2.7-4.851-13.343-2.758-11.388,7.186-11.388,7.186Z" transform="translate(-1452.032 -304.197)" fill="#d8d8d8"/>
    <path id="Caminho_82" data-name="Caminho 82" d="M1459.592,344.8l22.357-4.4-6.2-31.5s-2.449-4.4-12.1-2.5-10.329,6.517-10.329,6.517Z" transform="translate(-1451.896 -304.015)" fill="#2d2d2d"/>
  </g>
  <g id="Grupo_45" data-name="Grupo 45" transform="translate(85.569 61.78)">
    <path id="Caminho_83" data-name="Caminho 83" d="M1489.329,341.082l24.648-4.848-6.833-34.732s-2.7-4.851-13.343-2.757-11.388,7.186-11.388,7.186Z" transform="translate(-1482.414 -298.221)" fill="#d8d8d8"/>
    <path id="Caminho_84" data-name="Caminho 84" d="M1489.973,338.821l22.358-4.4-6.2-31.5s-2.449-4.4-12.1-2.5-10.329,6.519-10.329,6.519Z" transform="translate(-1482.278 -298.039)" fill="#2d2d2d"/>
  </g>
  <g id="Grupo_46" data-name="Grupo 46" transform="translate(128.124 53.409)">
    <path id="Caminho_85" data-name="Caminho 85" d="M1527.819,333.511l24.648-4.849-6.831-34.731s-2.7-4.851-13.344-2.758-11.386,7.186-11.386,7.186Z" transform="translate(-1520.905 -290.649)" fill="#d8d8d8"/>
    <path id="Caminho_86" data-name="Caminho 86" d="M1528.464,331.25l22.358-4.4-6.2-31.5s-2.449-4.4-12.1-2.5-10.33,6.517-10.33,6.517Z" transform="translate(-1520.769 -290.467)" fill="#2d2d2d"/>
  </g>
  <g id="Grupo_47" data-name="Grupo 47" transform="translate(162.72 46.603)">
    <path id="Caminho_87" data-name="Caminho 87" d="M1559.111,327.355l24.649-4.848-6.832-34.732s-2.7-4.851-13.343-2.757S1552.2,292.2,1552.2,292.2Z" transform="translate(-1552.197 -284.494)" fill="#d8d8d8"/>
    <path id="Caminho_88" data-name="Caminho 88" d="M1559.756,325.094l22.358-4.4-6.2-31.5s-2.449-4.4-12.1-2.5-10.329,6.519-10.329,6.519Z" transform="translate(-1552.061 -284.312)" fill="#2d2d2d"/>
  </g>
  <path id="Caminho_89" data-name="Caminho 89" d="M1516.9,270.556l-111.884,22.009,53.167-25.112,53.167-25.112,58.717,3.1,58.717,3.1Z" transform="translate(-1405.017 -242.341)" fill="#fdda54"/>
  <g id="Grupo_48" data-name="Grupo 48" transform="translate(67.331 144.151)">
    <path id="Caminho_90" data-name="Caminho 90" d="M1476.37,435.846,1501.018,431l-10.327-52.5s-3.221-7.5-13.864-5.407-10.909,9.621-10.909,9.621Z" transform="translate(-1465.918 -372.725)" fill="#d8d8d8"/>
    <path id="Caminho_91" data-name="Caminho 91" d="M1476.814,432.547l22.357-4.4-9.366-47.619s-2.922-6.8-12.576-4.9-9.9,8.727-9.9,8.727Z" transform="translate(-1465.768 -372.454)" fill="#2d2d2d"/>
  </g>
  <g id="Grupo_49" data-name="Grupo 49" transform="translate(100.921 137.543)">
    <path id="Caminho_92" data-name="Caminho 92" d="M1506.752,429.869l24.648-4.848-10.327-52.5s-3.221-7.5-13.864-5.407-10.909,9.622-10.909,9.622Z" transform="translate(-1496.3 -366.748)" fill="#d8d8d8"/>
    <path id="Caminho_93" data-name="Caminho 93" d="M1507.2,426.571l22.357-4.4-9.366-47.618s-2.922-6.8-12.577-4.905-9.894,8.727-9.894,8.727Z" transform="translate(-1496.151 -366.477)" fill="#2d2d2d"/>
  </g>
  <g id="Grupo_50" data-name="Grupo 50" transform="translate(143.475 129.172)">
    <path id="Caminho_94" data-name="Caminho 94" d="M1545.242,422.3l24.648-4.849-10.326-52.5s-3.222-7.5-13.865-5.407-10.909,9.621-10.909,9.621Z" transform="translate(-1534.79 -359.177)" fill="#d8d8d8"/>
    <path id="Caminho_95" data-name="Caminho 95" d="M1545.687,419l22.358-4.4-9.368-47.619s-2.922-6.8-12.576-4.9-9.895,8.728-9.895,8.728Z" transform="translate(-1534.641 -358.906)" fill="#2d2d2d"/>
  </g>
  <g id="Grupo_51" data-name="Grupo 51" transform="translate(178.072 122.366)">
    <path id="Caminho_96" data-name="Caminho 96" d="M1576.534,416.142l24.648-4.848-10.326-52.5s-3.222-7.5-13.865-5.407-10.908,9.622-10.908,9.622Z" transform="translate(-1566.083 -353.021)" fill="#d8d8d8"/>
    <path id="Caminho_97" data-name="Caminho 97" d="M1576.979,412.843l22.358-4.4-9.368-47.618s-2.921-6.8-12.576-4.905-9.895,8.727-9.895,8.727Z" transform="translate(-1565.934 -352.75)" fill="#2d2d2d"/>
  </g>
</svg>
