<svg xmlns="http://www.w3.org/2000/svg" width="128.304" height="121.889" viewBox="0 0 128.304 121.889">
  <path id="ic_redeem_24px" d="M117.474,27.661H103.488a19.2,19.2,0,0,0-34.129-17l-3.208,4.3L62.944,10.6A19.25,19.25,0,0,0,27.661,21.246a19.274,19.274,0,0,0,1.155,6.415H14.83A12.732,12.732,0,0,0,2.064,40.491L2,111.058a12.786,12.786,0,0,0,12.83,12.83H117.474a12.786,12.786,0,0,0,12.83-12.83V40.491A12.786,12.786,0,0,0,117.474,27.661ZM85.4,14.83a6.415,6.415,0,1,1-6.415,6.415A6.434,6.434,0,0,1,85.4,14.83Zm-38.491,0a6.415,6.415,0,1,1-6.415,6.415A6.434,6.434,0,0,1,46.906,14.83Zm70.567,96.228H14.83V98.228H117.474Zm0-32.076H14.83V40.491H47.42L34.076,58.646l10.393,7.506L59.737,45.367l6.415-8.725,6.415,8.725L87.835,66.152l10.393-7.506L84.884,40.491h32.589Z" transform="translate(-2 -2)" fill="#2d2d2d"/>
</svg>
