<svg xmlns="http://www.w3.org/2000/svg" width="134.853" height="121.653" viewBox="0 0 134.853 121.653">
  <path id="ic_directions_car_24px" d="M122.27,12.679A11.208,11.208,0,0,0,111.632,5H29.221a11.279,11.279,0,0,0-10.638,7.679L3,58.223V119.05a7.57,7.57,0,0,0,7.492,7.6h7.492a7.57,7.57,0,0,0,7.492-7.6v-7.6h89.9v7.6a7.57,7.57,0,0,0,7.492,7.6h7.492a7.57,7.57,0,0,0,7.492-7.6V58.223ZM29.221,88.637A11.406,11.406,0,1,1,40.459,77.232,11.307,11.307,0,0,1,29.221,88.637Zm82.41,0A11.406,11.406,0,1,1,122.87,77.232,11.307,11.307,0,0,1,111.632,88.637ZM17.984,50.62,29.221,16.405h82.41L122.87,50.62Z" transform="translate(-3 -5)" fill="#2d2d2d"/>
</svg>
