<svg id="Componente_5_1" data-name="Componente 5 – 1" xmlns="http://www.w3.org/2000/svg" width="201" height="33" viewBox="0 0 201 33">
  <text id="Traz_Pra_Mim" data-name="Traz Pra Mim" transform="translate(52 27)" fill="#fff" font-size="25" font-family="SegoeUI-Semibold, Segoe UI" font-weight="600"><tspan x="0" y="0">Traz Pra Mim</tspan></text>
  <path id="Caminho_101" data-name="Caminho 101" d="M37.363,12.283,14.921,27.054,37.363,41.013,59.921,26.648Zm-1.28,23.8V34.247c-1.668-.184-7.656-1.312-7.656-8.049,0-7.827,8.083-8.083,8.083-8.083s-5.7,2.766-5.7,8.083c0,4.426,3.953,5.738,5.278,6.053V30.292L39.7,33.187Zm2.249-.9s5.7-2.766,5.7-8.083c0-4.427-3.954-5.738-5.278-6.054V23l-3.621-2.895,3.621-2.895v1.835c1.668.184,7.656,1.312,7.656,8.049C46.416,34.925,38.332,35.181,38.332,35.181Z" transform="translate(-14.921 -10.502)" fill="#fdda54"/>
</svg>
