<svg id="Camada_1" data-name="Camada 1" xmlns="http://www.w3.org/2000/svg" xmlns:xlink="http://www.w3.org/1999/xlink" viewBox="0 0 1920 2160"><defs><style>.cls-1{fill:url(#Gradiente_sem_nome_4);}.cls-2{fill:#64a55f;}.cls-3{fill:#ca6065;}.cls-4{fill:#d8d8d8;}.cls-23,.cls-5{fill:#2c2c2c;}.cls-6{fill:#f1d25a;}.cls-17,.cls-18,.cls-20,.cls-30,.cls-7{fill:none;}.cls-7{stroke:#d8d8d8;stroke-width:1.65px;}.cls-8{fill:#59a150;}.cls-13,.cls-14,.cls-23,.cls-25,.cls-9{isolation:isolate;}.cls-9{font-size:45px;font-family:SegoeUI-Bold, Segoe UI;font-weight:700;}.cls-13,.cls-14,.cls-25,.cls-9{fill:#fff;}.cls-10{letter-spacing:-0.08em;}.cls-11{letter-spacing:0em;}.cls-12{letter-spacing:0em;}.cls-13,.cls-14{font-size:20px;}.cls-13,.cls-23{font-family:SegoeUI, Segoe UI;}.cls-14{font-family:SegoeUI-Italic, Segoe UI;font-style:italic;}.cls-15{letter-spacing:-0.06em;}.cls-16{letter-spacing:-0.01em;}.cls-17,.cls-18,.cls-20{stroke:#040006;}.cls-17,.cls-20{stroke-linecap:round;}.cls-17{stroke-miterlimit:10;}.cls-18,.cls-20{stroke-linejoin:round;stroke-width:2px;}.cls-19{fill:#040006;}.cls-21{fill:#faf0c9;}.cls-22{fill:#1b292a;}.cls-23,.cls-25{font-size:30px;}.cls-24{fill:#107888;}.cls-25{font-family:SegoeUI-Light, Segoe UI;font-weight:300;}.cls-26{letter-spacing:-0.13em;}.cls-27{letter-spacing:-0.02em;}.cls-28{letter-spacing:0.01em;}.cls-29{letter-spacing:-0.06em;}.cls-30{stroke:#70706f;}</style><linearGradient id="Gradiente_sem_nome_4" x1="1.12" y1="2161.66" x2="1.12" y2="2160.66" gradientTransform="matrix(2122.97, 0, 0, -995.55, -1459.57, 2152048.24)" gradientUnits="userSpaceOnUse"><stop offset="0" stop-color="#2a9fb8"/><stop offset="0" stop-color="#004d58"/><stop offset="0.61" stop-color="#2a9fb8"/><stop offset="1" stop-color="#3ba3c1"/></linearGradient></defs><title>Prancheta 1</title><path id="Caminho_59" data-name="Caminho 59" class="cls-1" d="M-134.08,953.36q0-474.4-.13-948.8c0-5.15,1.31-5.64,5.52-5.64q1055.93.17,2111.87,0c4.83,0,5.59,1.3,5.58,6.17q-.21,185.48-.11,370.94c-3.19,4-7.43,2.78-11.36,2.48-28.11-2.16-56.21-2.9-84.39-1.16-12.85.79-25.71,1.38-38.55,2.51-25.34,2.22-50.5,5.77-75.57,10.21-64,11.32-126.36,29.32-187.62,52-43.24,16-85.6,34.36-127.34,54.46-32.47,15.65-64.39,32.54-95.93,50.23-44.29,24.84-87.57,51.62-130.1,79.83-32.49,21.54-64.2,44.36-96.18,66.76q-50.74,35.57-103.73,67.14c-25.76,15.46-51.71,30.51-78.2,44.45C904.37,834,848,860.38,790.14,883.18a1630.37,1630.37,0,0,1-189.28,61.6,1560,1560,0,0,1-156.28,31.8c-31.53,4.8-63.16,8.56-94.87,11.46-14.1,1.29-28.26,2.06-42.4,3-40.26,2.59-80.55,4-120.85,3.17-24.81-.55-49.63-1.34-74.43-3.08-22-1.55-44-3.09-66-5.33C18.71,983-8.5,979.3-35.63,975q-45.66-7.18-90.81-17.41C-129.44,957-132.09,956-134.08,953.36Z"/><path id="Caminho_60" data-name="Caminho 60" class="cls-2" d="M901.38,797.66h262.43s22.74-332.4-166.2-337.65S901.38,797.66,901.38,797.66Z"/><path id="Caminho_61" data-name="Caminho 61" class="cls-2" d="M1285.34,861.52H1022.91s-22.74-332.41,166.2-337.66S1285.34,861.52,1285.34,861.52Z"/><g id="Grupo_30" data-name="Grupo 30"><rect id="Retângulo_17" data-name="Retângulo 17" class="cls-3" x="1202.46" y="303.94" width="248.43" height="255.43" transform="translate(-65.84 517.09) rotate(-21.53)"/><rect id="Retângulo_18" data-name="Retângulo 18" class="cls-4" x="1159.12" y="312.18" width="248.43" height="19.24" transform="translate(-28.54 493.51) rotate(-21.53)"/><rect id="Retângulo_19" data-name="Retângulo 19" class="cls-4" x="1211.99" y="354.06" width="12.11" height="248.43" transform="translate(-90.53 480.47) rotate(-21.53)"/><rect id="Retângulo_20" data-name="Retângulo 20" class="cls-4" x="1431.81" y="267.32" width="12.11" height="248.43" transform="translate(-43.35 555.1) rotate(-21.53)"/><rect id="Retângulo_21" data-name="Retângulo 21" class="cls-4" x="1202.46" y="428.62" width="248.43" height="6.06" transform="translate(-65.84 517.09) rotate(-21.53)"/></g><g id="Grupo_31" data-name="Grupo 31"><path id="Caminho_62" data-name="Caminho 62" class="cls-4" d="M1228.67,454l34.13-13.46-19-48.11s-5.16-6.25-19.9-.44-14.46,13.33-14.46,13.33Z"/><path id="Caminho_63" data-name="Caminho 63" class="cls-5" d="M1229.24,450.76l31-12.22L1243,394.92s-4.68-5.68-18-.4-13.12,12.09-13.12,12.09Z"/></g><g id="Grupo_32" data-name="Grupo 32"><path id="Caminho_64" data-name="Caminho 64" class="cls-4" d="M1275.18,435.6l34.13-13.47-19-48.09s-5.16-6.26-19.9-.45S1256,386.92,1256,386.92Z"/><path id="Caminho_65" data-name="Caminho 65" class="cls-5" d="M1275.75,432.4l31-12.21-17.21-43.63s-4.68-5.67-18-.4-13.12,12.09-13.12,12.09Z"/></g><g id="Grupo_33" data-name="Grupo 33"><path id="Caminho_66" data-name="Caminho 66" class="cls-4" d="M1334.1,412.34l34.13-13.46-19-48.1s-5.16-6.25-19.9-.44-14.47,13.33-14.47,13.33Z"/><path id="Caminho_67" data-name="Caminho 67" class="cls-5" d="M1334.68,409.15l31-12.22-17.21-43.62s-4.68-5.68-18-.4S1317.26,365,1317.26,365Z"/></g><g id="Grupo_34" data-name="Grupo 34"><path id="Caminho_68" data-name="Caminho 68" class="cls-4" d="M1382,393.44,1416.15,380l-19-48.09s-5.16-6.26-19.9-.44-14.46,13.32-14.46,13.32Z"/><path id="Caminho_69" data-name="Caminho 69" class="cls-5" d="M1382.59,390.25l31-12.22-17.22-43.63s-4.68-5.67-18-.4-13.12,12.09-13.12,12.09Z"/></g><path id="Caminho_70" data-name="Caminho 70" class="cls-6" d="M1282.89,320.68,1128,381.82l69.75-50.1,69.76-50.1,85.18-11,85.17-11Z"/><g id="Grupo_35" data-name="Grupo 35"><path id="Caminho_71" data-name="Caminho 71" class="cls-4" d="M1281.14,586.92l34.13-13.47-28.69-72.69s-6.6-9.93-21.34-4.11-13.14,16.7-13.14,16.7Z"/><path id="Caminho_72" data-name="Caminho 72" class="cls-5" d="M1281.19,582.41l31-12.21-26-65.94s-6-9-19.36-3.73-11.91,15.15-11.91,15.15Z"/></g><g id="Grupo_36" data-name="Grupo 36"><path id="Caminho_73" data-name="Caminho 73" class="cls-4" d="M1327.65,568.56l34.13-13.46-28.68-72.7s-6.61-9.92-21.35-4.11-13.13,16.7-13.13,16.7Z"/><path id="Caminho_74" data-name="Caminho 74" class="cls-5" d="M1327.71,564.06l31-12.22-26-65.94s-6-9-19.37-3.73-11.91,15.15-11.91,15.15Z"/></g><g id="Grupo_37" data-name="Grupo 37"><path id="Caminho_75" data-name="Caminho 75" class="cls-4" d="M1386.58,545.31l34.13-13.47L1392,459.15s-6.6-9.93-21.34-4.11-13.13,16.7-13.13,16.7Z"/><path id="Caminho_76" data-name="Caminho 76" class="cls-5" d="M1386.63,540.8l31-12.21-26-65.94s-6-9-19.37-3.73-11.91,15.15-11.91,15.15Z"/></g><g id="Grupo_38" data-name="Grupo 38"><path id="Caminho_77" data-name="Caminho 77" class="cls-4" d="M1434.48,526.41l34.14-13.47-28.69-72.69s-6.6-9.93-21.34-4.11-13.14,16.7-13.14,16.7Z"/><path id="Caminho_78" data-name="Caminho 78" class="cls-5" d="M1434.54,521.9l31-12.22-26-65.94s-6-9-19.36-3.72-11.92,15.14-11.92,15.14Z"/></g><g id="Grupo_40" data-name="Grupo 40"><path id="Caminho_79" data-name="Caminho 79" class="cls-4" d="M1677.32,475.76l47.61,6.06L1825,295.21,1811.11,139l-10.9-1.38,1.32,150Z"/><path id="Caminho_80" data-name="Caminho 80" class="cls-4" d="M1928,507.66l-47.61-6.06L1830.2,295.87l52.61-147.77,10.9,1.38-38.84,144.87Z"/><rect id="Retângulo_22" data-name="Retângulo 22" class="cls-4" x="1836.36" y="145.25" width="11.56" height="72.28" transform="matrix(0.13, -0.99, 0.99, 0.13, 1430.08, 1985.99)"/><rect id="Retângulo_23" data-name="Retângulo 23" class="cls-4" x="1819.42" y="282.17" width="15.61" height="23.71" transform="matrix(0.13, -0.99, 0.99, 0.13, 1305.3, 2069.64)"/></g><g id="Grupo_41" data-name="Grupo 41"><line id="Linha_10" data-name="Linha 10" class="cls-7" x1="1888.6" y1="152.26" x2="2057.19" y2="524.1"/><line id="Linha_11" data-name="Linha 11" class="cls-7" x1="1888.36" y1="160.6" x2="2027.25" y2="522.33"/><line id="Linha_12" data-name="Linha 12" class="cls-7" x1="1885.92" y1="165.98" x2="1998.25" y2="516.6"/><line id="Linha_13" data-name="Linha 13" class="cls-7" x1="1884.19" y1="172.75" x2="1968.57" y2="512.82"/></g><g id="Grupo_42" data-name="Grupo 42"><line id="Linha_14" data-name="Linha 14" class="cls-7" x1="1803.7" y1="146.31" x2="1547.36" y2="464.07"/><line id="Linha_15" data-name="Linha 15" class="cls-7" x1="1801.85" y1="154.45" x2="1576.79" y2="469.86"/><line id="Linha_16" data-name="Linha 16" class="cls-7" x1="1802.86" y1="160.26" x2="1606.3" y2="471.57"/><line id="Linha_17" data-name="Linha 17" class="cls-7" x1="1802.84" y1="167.25" x2="1635.99" y2="475.35"/></g><rect id="Retângulo_24" data-name="Retângulo 24" class="cls-8" x="1475.79" y="306.76" width="170.04" height="174.83" transform="translate(-46.73 308.71) rotate(-11.13)"/><rect id="Retângulo_25" data-name="Retângulo 25" class="cls-4" x="1460.19" y="308.28" width="170.04" height="13.17" transform="translate(-31.72 304.21) rotate(-11.13)"/><rect id="Retângulo_26" data-name="Retângulo 26" class="cls-4" x="1477.77" y="327.12" width="8.29" height="170.04" transform="translate(-51.69 293.82) rotate(-11.13)"/><rect id="Retângulo_27" data-name="Retângulo 27" class="cls-4" x="1636.52" y="295.89" width="8.29" height="170.04" transform="translate(-42.67 323.87) rotate(-11.13)"/><rect id="Retângulo_28" data-name="Retângulo 28" class="cls-4" x="1475.79" y="392.12" width="170.04" height="4.15" transform="translate(-46.74 308.71) rotate(-11.13)"/><g id="Grupo_44" data-name="Grupo 44"><path id="Caminho_81" data-name="Caminho 81" class="cls-4" d="M1492.08,397.09l24.65-4.85-6.84-34.73s-2.7-4.85-13.34-2.76-11.39,7.19-11.39,7.19Z"/><path id="Caminho_82" data-name="Caminho 82" class="cls-5" d="M1492.86,395l22.36-4.4-6.2-31.5s-2.45-4.4-12.1-2.5-10.33,6.52-10.33,6.52Z"/></g><g id="Grupo_45" data-name="Grupo 45"><path id="Caminho_83" data-name="Caminho 83" class="cls-4" d="M1525.67,390.48l24.65-4.85-6.84-34.73s-2.7-4.85-13.34-2.75-11.39,7.18-11.39,7.18Z"/><path id="Caminho_84" data-name="Caminho 84" class="cls-5" d="M1526.45,388.4l22.36-4.4-6.2-31.5s-2.45-4.4-12.1-2.5-10.33,6.52-10.33,6.52Z"/></g><g id="Grupo_46" data-name="Grupo 46"><path id="Caminho_85" data-name="Caminho 85" class="cls-4" d="M1568.22,382.11l24.65-4.85L1586,342.53s-2.7-4.85-13.35-2.76-11.38,7.19-11.38,7.19Z"/><path id="Caminho_86" data-name="Caminho 86" class="cls-5" d="M1569,380l22.36-4.4-6.2-31.5s-2.45-4.4-12.1-2.5-10.33,6.52-10.33,6.52Z"/></g><g id="Grupo_47" data-name="Grupo 47"><path id="Caminho_87" data-name="Caminho 87" class="cls-4" d="M1602.82,375.31l24.65-4.85-6.84-34.73s-2.7-4.86-13.34-2.76-11.38,7.18-11.38,7.18Z"/><path id="Caminho_88" data-name="Caminho 88" class="cls-5" d="M1603.6,373.23l22.36-4.4-6.2-31.5s-2.45-4.4-12.1-2.5-10.33,6.52-10.33,6.52Z"/></g><path id="Caminho_89" data-name="Caminho 89" class="cls-6" d="M1545.07,314.06l-111.89,22L1486.35,311l53.17-25.11,58.71,3.1L1657,292Z"/><g id="Grupo_48" data-name="Grupo 48"><path id="Caminho_90" data-name="Caminho 90" class="cls-4" d="M1511,493.11l24.64-4.84-10.32-52.5s-3.22-7.5-13.87-5.41-10.91,9.62-10.91,9.62Z"/><path id="Caminho_91" data-name="Caminho 91" class="cls-5" d="M1511.56,490.08l22.36-4.4-9.37-47.61s-2.92-6.8-12.57-4.9-9.9,8.72-9.9,8.72Z"/></g><g id="Grupo_49" data-name="Grupo 49"><path id="Caminho_92" data-name="Caminho 92" class="cls-4" d="M1544.56,486.51l24.64-4.85-10.32-52.5s-3.22-7.5-13.87-5.41-10.91,9.62-10.91,9.62Z"/><path id="Caminho_93" data-name="Caminho 93" class="cls-5" d="M1545.15,483.48l22.36-4.4-9.37-47.62s-2.92-6.8-12.57-4.9-9.9,8.72-9.9,8.72Z"/></g><g id="Grupo_50" data-name="Grupo 50"><path id="Caminho_94" data-name="Caminho 94" class="cls-4" d="M1587.11,478.14l24.65-4.85-10.33-52.5s-3.22-7.5-13.86-5.41-10.91,9.62-10.91,9.62Z"/><path id="Caminho_95" data-name="Caminho 95" class="cls-5" d="M1587.7,475.11l22.36-4.4-9.37-47.62s-2.92-6.8-12.57-4.9-9.9,8.73-9.9,8.73Z"/></g><g id="Grupo_51" data-name="Grupo 51"><path id="Caminho_96" data-name="Caminho 96" class="cls-4" d="M1621.71,471.33l24.64-4.85L1636,414s-3.22-7.5-13.87-5.41-10.9,9.63-10.9,9.63Z"/><path id="Caminho_97" data-name="Caminho 97" class="cls-5" d="M1622.3,468.3l22.36-4.4-9.37-47.62s-2.92-6.8-12.58-4.9-9.89,8.72-9.89,8.72Z"/></g><path id="Caminho_99" data-name="Caminho 99" class="cls-4" d="M756.67,955.08,736,863.2s-6.58,1.48-6.74-6l-11.3-46a18.17,18.17,0,0,1-5.52-8.71S688.92,694.18,687.06,683.2c0,0-14.88.64-28.49-4.42,0,0-29.52,1-40.72-1.13,0,0-12.57-4.92-21.4-28.78l-5.85-2.13s-21.74,3.91-42.31-6.88l-1.83-2.67-2-.54.68-3.21,2.6-.8,1.67-1.67,12.78.7S556.71,628,561,627.4c0,0,16.72-1.21,26.15,6.06l5.83,1,.53-1.55,17.51,4.1s24.54-4.08,29.21-2.5l23.16-8,.1-1.88s28.72-12.29,30.33-11.4l-8.24-42.08s1.79-17.64,17.93-10.36c0,0,6.32,4.77,10.3,18.8l10.09,29,47.77.11,9.59,4.22s37.34-5.23,41.68-6.1l.32,1.06,3.71-1s.14-7.44,17.16-8.74c0,0,3.3.37.94,3.06l.92,1.34,9.9-1.31,1.48,1.28s3.09-.84,2.63.92l-1,1.93-1.54,1.28-.29,2-.53,1s-13.49,6.8-21.17,7.43l-2.06-.41-8.13,2.72s-.76,29.7-8,31.7-27.67,3.42-27.67,3.42-7.2,12.84-16.88,14.32l16.76,48.57s2.3,6.92.67,7.89l-2,1.55,1.07,7.3L787.75,737s12.37,33.18,12,39.64l-1.13.7,54.78,148.06Z"/><path id="Caminho_100" data-name="Caminho 100" class="cls-6" d="M-134.07,892.61q24.79,4.5,49.61,9c28.58,5.11,57.34,9.08,86.18,12.63,28.15,3.46,56.37,6.26,84.66,8.16,52.25,3.53,104.56,5.44,157,4.2,31-.72,62-1.79,92.9-4q43-3.09,85.77-8.23,65-7.9,129.27-20.35a1726.92,1726.92,0,0,0,181.18-45.6c110.66-34.31,216.5-79.26,318-133.8,55.2-29.65,107.78-63.27,160.86-96.16,75.09-46.54,152.73-88.75,233.53-125.44,87.43-39.7,177.49-72.48,271.6-94.39a1085.21,1085.21,0,0,1,121.14-21.2,909.35,909.35,0,0,1,125-6c14.46.32,28.9,1.29,43.36,2q0,407.4.14,814.8c0,4.63-1.33,5.07-5.57,5.07q-1064.55-.17-2129.08,0c-4.86,0-5.64-1.15-5.64-5.55Q-134,1040.13-134.07,892.61Z"/><text class="cls-9" transform="translate(284.79 237.12)"><tspan class="cls-10">T</tspan><tspan x="22.98" y="0">razendo cultura e his</tspan><tspan class="cls-11" x="463.34" y="0">t</tspan><tspan x="480.67" y="0">ó</tspan><tspan class="cls-12" x="508.16" y="0">r</tspan><tspan x="526.25" y="0">ia</tspan></text><text class="cls-13" transform="translate(284.79 275.12)">A </text><text class="cls-14" transform="translate(303.16 275.12)"><tspan class="cls-15">T</tspan><tspan class="cls-16" x="9.41" y="0">r</tspan><tspan x="16.38" y="0">az P</tspan><tspan class="cls-16" x="53.26" y="0">r</tspan><tspan x="60.22" y="0">a Mim</tspan></text><text class="cls-13" transform="translate(418.42 275.12)"><tspan xml:space="preserve"> é um serviço que oferece a facilidade de </tspan></text><text class="cls-13" transform="translate(284.79 302.12)">encomendar produtos típicos de várias regiões do nosso </text><text class="cls-13" transform="translate(284.79 329.12)">Brasil por meio de viajantes cadastrados, com um método </text><text class="cls-13" transform="translate(284.79 356.12)">fácil e prático de negociação</text><g id="Grupo_29" data-name="Grupo 29"><line id="Linha_9" data-name="Linha 9" class="cls-17" x1="960.11" y1="980.04" x2="960.11" y2="1000.78"/><path id="Retângulo_15" data-name="Retângulo 15" class="cls-18" d="M960.11,980h0a11,11,0,0,1,11,11v13.86a11,11,0,0,1-11,11h0a11,11,0,0,1-11-11V991.05A11,11,0,0,1,960.11,980Z"/><path id="Retângulo_16" data-name="Retângulo 16" class="cls-19" d="M960.11,983.4h0a2.1,2.1,0,0,1,2.11,2.1v5.76a2.1,2.1,0,0,1-2.11,2.1h0a2.1,2.1,0,0,1-2.1-2.1V985.5A2.1,2.1,0,0,1,960.11,983.4Z"/></g><path id="Caminho_58" data-name="Caminho 58" class="cls-20" d="M950.76,1018.86l9.22,9.54,9.49-9.81"/><rect id="Retângulo_59" data-name="Retângulo 59" class="cls-21" x="-0.21" y="1081.12" width="1920" height="464"/><rect id="Retângulo_60" data-name="Retângulo 60" class="cls-22" x="-0.21" y="2033.12" width="1920" height="128"/><path id="ic_directions_car_24px" data-name="ic directions car 24px" class="cls-5" d="M1011.56,1177.91a11.21,11.21,0,0,0-10.64-7.68H918.51a11.28,11.28,0,0,0-10.64,7.68l-15.58,45.54v60.83a7.57,7.57,0,0,0,7.49,7.6h7.49a7.57,7.57,0,0,0,7.49-7.6v-7.6h89.9v7.6a7.57,7.57,0,0,0,7.49,7.6h7.5a7.57,7.57,0,0,0,7.49-7.6v-60.83Zm-93,75.95a11.4,11.4,0,1,1,11.23-11.57v.17a11.3,11.3,0,0,1-11.2,11.4Zm82.41,0a11.4,11.4,0,1,1,11.23-11.57c0,.06,0,.11,0,.17a11.31,11.31,0,0,1-11.21,11.4Zm-93.65-38,11.24-34.22h82.41l11.24,34.22Z"/><text class="cls-23" transform="translate(873.62 1366.12)">Lorem ipsum </text><text class="cls-23" transform="translate(864.5 1406.12)">dolor sit amet, </text><text class="cls-23" transform="translate(882.73 1446.12)">consectetur</text><text class="cls-23" transform="translate(1398.62 1366.12)">Lorem ipsum </text><text class="cls-23" transform="translate(1389.5 1406.12)">dolor sit amet, </text><text class="cls-23" transform="translate(1407.73 1446.12)">consectetur</text><text class="cls-23" transform="translate(372.62 1366.12)">Lorem ipsum </text><text class="cls-23" transform="translate(363.5 1406.12)">dolor sit amet, </text><text class="cls-23" transform="translate(381.73 1446.12)">consectetur</text><path id="ic_room_24px" data-name="ic room 24px" class="cls-5" d="M458.45,1170.23a42.62,42.62,0,0,0-42.66,42.6v.06c0,32,42.66,79.23,42.66,79.23s42.66-47.24,42.66-79.23a42.64,42.64,0,0,0-42.6-42.66Zm0,57.9a15.24,15.24,0,1,1,15.24-15.24A15.24,15.24,0,0,1,458.45,1228.13Z"/><path id="ic_redeem_24px" data-name="ic redeem 24px" class="cls-5" d="M1536.26,1195.89h-14a19.2,19.2,0,0,0-34.13-17l-3.2,4.3-3.21-4.36a19.25,19.25,0,0,0-35.28,10.64,19,19,0,0,0,1.15,6.42h-14a12.73,12.73,0,0,0-12.77,12.7v.13l-.06,70.57a12.79,12.79,0,0,0,12.74,12.83h102.73a12.79,12.79,0,0,0,12.83-12.75v-70.65a12.79,12.79,0,0,0-12.74-12.83Zm-32.07-12.83a6.42,6.42,0,1,1-6.42,6.41h0A6.43,6.43,0,0,1,1504.19,1183.06Zm-38.5,0a6.42,6.42,0,1,1-6.41,6.41h0a6.43,6.43,0,0,1,6.41-6.41Zm70.57,96.23H1433.62v-12.83h102.64Zm0-32.08H1433.62v-38.49h32.59l-13.35,18.15,10.39,7.51,15.27-20.79,6.42-8.72,6.41,8.72,15.27,20.79,10.39-7.51-13.34-18.15h32.59Z"/><path id="Caminho_110" data-name="Caminho 110" class="cls-24" d="M1919.79,1519.89S808.37,1604-.21,1471.44v561.89h1920Z"/><text class="cls-9" transform="translate(158.79 1671.12)">Quem Somos</text><text class="cls-25" transform="translate(158.79 1751.12)"><tspan xml:space="preserve">  magna aliqua. Sed lectus vestibulum mattis ullamcorper </tspan></text><text class="cls-25" transform="translate(158.79 1791.12)">velit sed ullamcorpe<tspan class="cls-26" x="249.81" y="0">r</tspan><tspan x="255.94" y="0">. Consequat inte</tspan><tspan class="cls-27" x="460.2" y="0">r</tspan><tspan x="469.5" y="0">dum varius sit amet </tspan></text><text class="cls-25" transform="translate(158.79 1831.12)">mattis vulputate enim nulla. Odio pellentesque diam </text><text class="cls-25" transform="translate(158.79 1871.12)">volutpat commodo sed egestas egestas fringilla. Cu<tspan class="cls-28" x="644.94" y="0">r</tspan><tspan x="655.14" y="0">sus </tspan></text><text class="cls-25" transform="translate(158.79 1911.12)">risus at ultrices mi tempus impe<tspan class="cls-27" x="394.26" y="0">r</tspan><tspan x="403.56" y="0">diet nulla. </tspan><tspan class="cls-29" x="532.91" y="0">F</tspan><tspan x="545.17" y="0">aucibus purus</tspan></text><line id="Linha_27" data-name="Linha 27" class="cls-30" x1="269.29" y1="1638.62" x2="269.29" y2="1694.62"/><line id="Linha_28" data-name="Linha 28" class="cls-30" x1="416.29" y1="1644.62" x2="416.29" y2="1520.62"/><line id="Linha_29" data-name="Linha 29" class="cls-30" x1="1406.29" y1="2033.62" x2="1406.29" y2="1988.62"/><image width="772" height="401" transform="translate(989.34 1597.83)" xlink:href="../../../../../Interse%C3%A7%C3%A3o%206.png"/></svg>